{"title":"24 Live Another Day - s09e11 - 720p ENG sub ITA/ENG","uid":10564843,"size":1111389831,"categoryP":"video","categoryS":"hd___tv_shows","magnet":"?xt=urn:btih:ce3aa516dd36189ee9b545733365249ed862c8a9&amp;dn=24+Live+Another+Day+-+s09e11+-+720p+ENG+sub+ITA%2FENG&amp;tr=udp%3A%2F%2Ftracker.openbittorrent.com%3A80&amp;tr=udp%3A%2F%2Fopen.demonii.com%3A1337&amp;tr=udp%3A%2F%2Ftracker.coppersurfer.tk%3A6969&amp;tr=udp%3A%2F%2Fexodus.desync.com%3A6969","seeders":1,"leechers":0,"uploader":"ziopino","files":1,"time":1405506733,"description":"Format                                   : Matroska\nFormat version                           : Version 4 / Version 2\nFile size                                : 1.04 GiB\nDuration                                 : 42mn 51s\nOverall bit rate                         : 3 457 Kbps\nEncoded date                             : UTC 2014-07-14 22:32:56\nWriting application                      : mkvmerge v7.0.0 ('Where We Going') 64bit built on Jun  9 2014 15:16:27\nWriting library                          : libebml v1.3.0 + libmatroska v1.4.1\nDURATION                                 : 00:41:30.925000000\nNUMBER_OF_FRAMES                         : 613\nNUMBER_OF_BYTES                          : 25322\n_STATISTICS_WRITING_APP                  : mkvmerge v7.0.0 ('Where We Going') 64bit built on Jun  9 2014 15:16:27\n_STATISTICS_WRITING_DATE_UTC             : 2014-07-14 22:32:56\n_STATISTICS_TAGS                         : BPS DURATION NUMBER_OF_FRAMES NUMBER_OF_BYTES\n\nVideo\nID                                       : 1\nFormat                                   : AVC\nFormat/Info                              : Advanced Video Codec\nFormat profile                           : &lt;a class=&quot;__cf_email__&quot; href=&quot;/cdn-cgi/l/email-protection&quot; data-cfemail=&quot;145c7d737c5458203a25&quot;&gt;[email&amp;#160;protected]&lt;/a&gt;&lt;script cf-hash='f9e31' type=&quot;text/javascript&quot;&gt;\n/* &lt;![CDATA[ */!function(){try{var t=&quot;currentScript&quot;in document?document.currentScript:function(){for(var t=document.getElementsByTagName(&quot;script&quot;),e=t.length;e--;)if(t[e].getAttribute(&quot;cf-hash&quot;))return t[e]}();if(t&amp;&amp;t.previousSibling){var e,r,n,i,c=t.previousSibling,a=c.getAttribute(&quot;data-cfemail&quot;);if(a){for(e=&quot;&quot;,r=parseInt(a.substr(0,2),16),n=2;a.length-n;n+=2)i=parseInt(a.substr(n,2),16)^r,e+=String.fromCharCode(i);e=document.createTextNode(e),c.parentNode.replaceChild(e,c)}}}catch(u){}}();/* ]]&gt; */&lt;/script&gt;\nFormat settings, CABAC                   : Yes\nFormat settings, ReFrames                : 9 frames\nCodec ID                                 : V_MPEG4/ISO/AVC\nDuration                                 : 42mn 51s\nBit rate                                 : 2 941 Kbps\nWidth                                    : 1 280 pixels\nHeight                                   : 720 pixels\nDisplay aspect ratio                     : 16:9\nFrame rate mode                          : Constant\nFrame rate                               : 23.976 fps\nColor space                              : YUV\nChroma subsampling                       : 4:2:0\nBit depth                                : 8 bits\nScan type                                : Progressive\nBits/(Pixel*Frame)                       : 0.133\nStream size                              : 901 MiB (85%)\nWriting library                          : x264 core 142 r2431 ac76440\nEncoding settings                        : cabac=1 / ref=9 / deblock=1:-1:-1 / analyse=0x3:0x133 / me=umh / subme=10 / psy=1 / psy_rd=1.00:0.00 / mixed_ref=1 / me_range=32 / chroma_me=1 / trellis=2 / 8x8dct=1 / cqm=0 / deadzone=21,11 / fast_pskip=0 / chroma_qp_offset=-2 / threads=16 / lookahead_threads=1 / sliced_threads=0 / nr=0 / decimate=1 / interlaced=0 / bluray_compat=0 / constrained_intra=0 / bframes=5 / b_pyramid=2 / b_adapt=2 / b_bias=0 / direct=3 / weightb=1 / open_gop=0 / weightp=2 / keyint=250 / keyint_min=23 / scenecut=40 / intra_refresh=0 / rc_lookahead=60 / rc=crf / mbtree=1 / crf=18.0 / qcomp=0.60 / qpmin=0 / qpmax=69 / qpstep=4 / ip_ratio=1.40 / aq=1:1.00\nLanguage                                 : English\nDefault                                  : Yes\nForced                                   : No\nMatrix coefficients                      : BT.709\nDURATION                                 : 00:42:51.569000000\nNUMBER_OF_FRAMES                         : 61656\nNUMBER_OF_BYTES                          : 966714425\n_STATISTICS_WRITING_APP                  : mkvmerge v7.0.0 ('Where We Going') 64bit built on Jun  9 2014 15:16:27\n_STATISTICS_WRITING_DATE_UTC             : 2014-07-14 22:32:56\n_STATISTICS_TAGS                         : BPS DURATION NUMBER_OF_FRAMES NUMBER_OF_BYTES\n\nAudio\nID                                       : 2\nFormat                                   : AC-3\nFormat/Info                              : Audio Coding 3\nMode extension                           : CM (complete main)\nFormat settings, Endianness              : Big\nCodec ID                                 : A_AC3\nDuration                                 : 42mn 51s\nBit rate mode                            : Constant\nBit rate                                 : 448 Kbps\nChannel(s)                               : 6 channels\nChannel positions                        : Front: L C R, Side: L R, LFE\nSampling rate                            : 48.0 KHz\nBit depth                                : 16 bits\nCompression mode                         : Lossy\nStream size                              : 137 MiB (13%)\nTitle                                    : English\nLanguage                                 : English\nDefault                                  : Yes\nForced                                   : No\n\nText #1\nID                                       : 3\nFormat                                   : UTF-8\nCodec ID                                 : S_TEXT/UTF8\nCodec ID/Info                            : UTF-8 Plain Text\nTitle                                    : English\nLanguage                                 : English\nDefault                                  : Yes\nForced                                   : No\n\nText #2\nID                                       : 4\nFormat                                   : UTF-8\nCodec ID                                 : S_TEXT/UTF8\nCodec ID/Info                            : UTF-8 Plain Text\nTitle                                    : Italiano\nLanguage                                 : Italian\nDefault                                  : No\nForced                                   : No\n\n","torrent":{"xt":"urn:btih:ce3aa516dd36189ee9b545733365249ed862c8a9","amp;dn":"24+Live+Another+Day+-+s09e11+-+720p+ENG+sub+ITA%2FENG","amp;tr":["udp%3A%2F%2Ftracker.openbittorrent.com%3A80","udp%3A%2F%2Fopen.demonii.com%3A1337","udp%3A%2F%2Ftracker.coppersurfer.tk%3A6969","udp%3A%2F%2Fexodus.desync.com%3A6969"],"infoHash":"ce3aa516dd36189ee9b545733365249ed862c8a9","infoHashBuffer":{"type":"Buffer","data":[206,58,165,22,221,54,24,158,233,181,69,115,51,101,36,158,216,98,200,169]},"announce":[],"urlList":[]}}